<svg width="120" height="40" viewBox="0 0 120 40" fill="none" xmlns="http://www.w3.org/2000/svg">
<path d="M32 0.25H8C3.71979 0.25 0.25 3.71979 0.25 8V32C0.25 36.2802 3.71979 39.75 8 39.75H32C36.2802 39.75 39.75 36.2802 39.75 32V8C39.75 3.71979 36.2802 0.25 32 0.25Z" fill="white"/>
<path d="M32 0.25H8C3.71979 0.25 0.25 3.71979 0.25 8V32C0.25 36.2802 3.71979 39.75 8 39.75H32C36.2802 39.75 39.75 36.2802 39.75 32V8C39.75 3.71979 36.2802 0.25 32 0.25Z" stroke="#E7EAF0" stroke-width="0.5"/>
<path d="M20 36C28.8365 36 36 28.8365 36 20C36 11.1635 28.8365 4 20 4C11.1635 4 4 11.1635 4 20C4 28.8365 11.1635 36 20 36Z" fill="#12161F"/>
<path d="M20.0001 33C27.1797 33 33 27.1797 33 20.0001C33 12.8203 27.1797 7 20.0001 7C12.8203 7 7 12.8204 7 20.0001C7 27.1797 12.8204 33 20.0001 33Z" fill="#C9CEDB"/>
<path d="M20.0001 30.0002C25.5229 30.0002 30.0002 25.5229 30.0002 20.0001C30.0002 14.4773 25.5229 10.0002 20.0001 10.0002C14.4773 10.0002 10.0002 14.4773 10.0002 20.0001C10.0002 25.5229 14.4773 30.0002 20.0001 30.0002Z" fill="white"/>
<text x="48" y="28" font-family="system-ui, -apple-system, BlinkMacSystemFont, 'Segoe UI', sans-serif" font-size="22" font-weight="700" fill="white" letter-spacing="-0.5">Orbit</text>
</svg>
